<?xml version="1.0" encoding="utf-8" standalone="no"?>
<!DOCTYPE svg PUBLIC "-//W3C//DTD SVG 1.1//EN"
  "http://www.w3.org/Graphics/SVG/1.1/DTD/svg11.dtd">
<svg xmlns:xlink="http://www.w3.org/1999/xlink" width="486.891875pt" height="310.86825pt" viewBox="0 0 486.891875 310.86825" xmlns="http://www.w3.org/2000/svg" version="1.1">
 <metadata>
  <rdf:RDF xmlns:dc="http://purl.org/dc/elements/1.1/" xmlns:cc="http://creativecommons.org/ns#" xmlns:rdf="http://www.w3.org/1999/02/22-rdf-syntax-ns#">
   <cc:Work>
    <dc:type rdf:resource="http://purl.org/dc/dcmitype/StillImage"/>
    <dc:date>2023-12-11T22:08:38.418210</dc:date>
    <dc:format>image/svg+xml</dc:format>
    <dc:creator>
     <cc:Agent>
      <dc:title>Matplotlib v3.8.2, https://matplotlib.org/</dc:title>
     </cc:Agent>
    </dc:creator>
   </cc:Work>
  </rdf:RDF>
 </metadata>
 <defs>
  <style type="text/css">*{stroke-linejoin: round; stroke-linecap: butt}</style>
 </defs>
 <g id="figure_1">
  <g id="patch_1">
   <path d="M 0 310.86825 
L 486.891875 310.86825 
L 486.891875 0 
L 0 0 
z
" style="fill: #ffffff"/>
  </g>
  <g id="axes_1">
   <g id="patch_2">
    <path d="M 58.523438 273.312 
L 415.643438 273.312 
L 415.643438 7.2 
L 58.523438 7.2 
z
" style="fill: #ffffff"/>
   </g>
   <g id="matplotlib.axis_1">
    <g id="xtick_1">
     <g id="line2d_1">
      <defs>
       <path id="m96a685a5db" d="M 0 0 
L 0 3.5 
" style="stroke: #000000; stroke-width: 0.8"/>
      </defs>
      <g>
       <use xlink:href="#m96a685a5db" x="74.756165" y="273.312" style="stroke: #000000; stroke-width: 0.8"/>
      </g>
     </g>
     <g id="text_1">
      <!-- 0 -->
      <g transform="translate(71.574915 287.910437) scale(0.1 -0.1)">
       <defs>
        <path id="DejaVuSans-30" d="M 2034 4250 
Q 1547 4250 1301 3770 
Q 1056 3291 1056 2328 
Q 1056 1369 1301 889 
Q 1547 409 2034 409 
Q 2525 409 2770 889 
Q 3016 1369 3016 2328 
Q 3016 3291 2770 3770 
Q 2525 4250 2034 4250 
z
M 2034 4750 
Q 2819 4750 3233 4129 
Q 3647 3509 3647 2328 
Q 3647 1150 3233 529 
Q 2819 -91 2034 -91 
Q 1250 -91 836 529 
Q 422 1150 422 2328 
Q 422 3509 836 4129 
Q 1250 4750 2034 4750 
z
" transform="scale(0.015625)"/>
       </defs>
       <use xlink:href="#DejaVuSans-30"/>
      </g>
     </g>
    </g>
    <g id="xtick_2">
     <g id="line2d_2">
      <g>
       <use xlink:href="#m96a685a5db" x="139.687074" y="273.312" style="stroke: #000000; stroke-width: 0.8"/>
      </g>
     </g>
     <g id="text_2">
      <!-- 1 -->
      <g transform="translate(136.505824 287.910437) scale(0.1 -0.1)">
       <defs>
        <path id="DejaVuSans-31" d="M 794 531 
L 1825 531 
L 1825 4091 
L 703 3866 
L 703 4441 
L 1819 4666 
L 2450 4666 
L 2450 531 
L 3481 531 
L 3481 0 
L 794 0 
L 794 531 
z
" transform="scale(0.015625)"/>
       </defs>
       <use xlink:href="#DejaVuSans-31"/>
      </g>
     </g>
    </g>
    <g id="xtick_3">
     <g id="line2d_3">
      <g>
       <use xlink:href="#m96a685a5db" x="204.617983" y="273.312" style="stroke: #000000; stroke-width: 0.8"/>
      </g>
     </g>
     <g id="text_3">
      <!-- 2 -->
      <g transform="translate(201.436733 287.910437) scale(0.1 -0.1)">
       <defs>
        <path id="DejaVuSans-32" d="M 1228 531 
L 3431 531 
L 3431 0 
L 469 0 
L 469 531 
Q 828 903 1448 1529 
Q 2069 2156 2228 2338 
Q 2531 2678 2651 2914 
Q 2772 3150 2772 3378 
Q 2772 3750 2511 3984 
Q 2250 4219 1831 4219 
Q 1534 4219 1204 4116 
Q 875 4013 500 3803 
L 500 4441 
Q 881 4594 1212 4672 
Q 1544 4750 1819 4750 
Q 2544 4750 2975 4387 
Q 3406 4025 3406 3419 
Q 3406 3131 3298 2873 
Q 3191 2616 2906 2266 
Q 2828 2175 2409 1742 
Q 1991 1309 1228 531 
z
" transform="scale(0.015625)"/>
       </defs>
       <use xlink:href="#DejaVuSans-32"/>
      </g>
     </g>
    </g>
    <g id="xtick_4">
     <g id="line2d_4">
      <g>
       <use xlink:href="#m96a685a5db" x="269.548892" y="273.312" style="stroke: #000000; stroke-width: 0.8"/>
      </g>
     </g>
     <g id="text_4">
      <!-- 3 -->
      <g transform="translate(266.367642 287.910437) scale(0.1 -0.1)">
       <defs>
        <path id="DejaVuSans-33" d="M 2597 2516 
Q 3050 2419 3304 2112 
Q 3559 1806 3559 1356 
Q 3559 666 3084 287 
Q 2609 -91 1734 -91 
Q 1441 -91 1130 -33 
Q 819 25 488 141 
L 488 750 
Q 750 597 1062 519 
Q 1375 441 1716 441 
Q 2309 441 2620 675 
Q 2931 909 2931 1356 
Q 2931 1769 2642 2001 
Q 2353 2234 1838 2234 
L 1294 2234 
L 1294 2753 
L 1863 2753 
Q 2328 2753 2575 2939 
Q 2822 3125 2822 3475 
Q 2822 3834 2567 4026 
Q 2313 4219 1838 4219 
Q 1578 4219 1281 4162 
Q 984 4106 628 3988 
L 628 4550 
Q 988 4650 1302 4700 
Q 1616 4750 1894 4750 
Q 2613 4750 3031 4423 
Q 3450 4097 3450 3541 
Q 3450 3153 3228 2886 
Q 3006 2619 2597 2516 
z
" transform="scale(0.015625)"/>
       </defs>
       <use xlink:href="#DejaVuSans-33"/>
      </g>
     </g>
    </g>
    <g id="xtick_5">
     <g id="line2d_5">
      <g>
       <use xlink:href="#m96a685a5db" x="334.479801" y="273.312" style="stroke: #000000; stroke-width: 0.8"/>
      </g>
     </g>
     <g id="text_5">
      <!-- 4 -->
      <g transform="translate(331.298551 287.910437) scale(0.1 -0.1)">
       <defs>
        <path id="DejaVuSans-34" d="M 2419 4116 
L 825 1625 
L 2419 1625 
L 2419 4116 
z
M 2253 4666 
L 3047 4666 
L 3047 1625 
L 3713 1625 
L 3713 1100 
L 3047 1100 
L 3047 0 
L 2419 0 
L 2419 1100 
L 313 1100 
L 313 1709 
L 2253 4666 
z
" transform="scale(0.015625)"/>
       </defs>
       <use xlink:href="#DejaVuSans-34"/>
      </g>
     </g>
    </g>
    <g id="xtick_6">
     <g id="line2d_6">
      <g>
       <use xlink:href="#m96a685a5db" x="399.41071" y="273.312" style="stroke: #000000; stroke-width: 0.8"/>
      </g>
     </g>
     <g id="text_6">
      <!-- 5 -->
      <g transform="translate(396.22946 287.910437) scale(0.1 -0.1)">
       <defs>
        <path id="DejaVuSans-35" d="M 691 4666 
L 3169 4666 
L 3169 4134 
L 1269 4134 
L 1269 2991 
Q 1406 3038 1543 3061 
Q 1681 3084 1819 3084 
Q 2600 3084 3056 2656 
Q 3513 2228 3513 1497 
Q 3513 744 3044 326 
Q 2575 -91 1722 -91 
Q 1428 -91 1123 -41 
Q 819 9 494 109 
L 494 744 
Q 775 591 1075 516 
Q 1375 441 1709 441 
Q 2250 441 2565 725 
Q 2881 1009 2881 1497 
Q 2881 1984 2565 2268 
Q 2250 2553 1709 2553 
Q 1456 2553 1204 2497 
Q 953 2441 691 2322 
L 691 4666 
z
" transform="scale(0.015625)"/>
       </defs>
       <use xlink:href="#DejaVuSans-35"/>
      </g>
     </g>
    </g>
    <g id="text_7">
     <!-- $t (S)$ -->
     <g transform="translate(228.033437 301.588562) scale(0.1 -0.1)">
      <defs>
       <path id="DejaVuSans-Oblique-74" d="M 2706 3500 
L 2619 3053 
L 1472 3053 
L 1100 1153 
Q 1081 1047 1072 975 
Q 1063 903 1063 863 
Q 1063 663 1183 572 
Q 1303 481 1569 481 
L 2150 481 
L 2053 0 
L 1503 0 
Q 991 0 739 200 
Q 488 400 488 806 
Q 488 878 497 964 
Q 506 1050 525 1153 
L 897 3053 
L 409 3053 
L 500 3500 
L 978 3500 
L 1172 4494 
L 1747 4494 
L 1556 3500 
L 2706 3500 
z
" transform="scale(0.015625)"/>
       <path id="DejaVuSans-28" d="M 1984 4856 
Q 1566 4138 1362 3434 
Q 1159 2731 1159 2009 
Q 1159 1288 1364 580 
Q 1569 -128 1984 -844 
L 1484 -844 
Q 1016 -109 783 600 
Q 550 1309 550 2009 
Q 550 2706 781 3412 
Q 1013 4119 1484 4856 
L 1984 4856 
z
" transform="scale(0.015625)"/>
       <path id="DejaVuSans-Oblique-53" d="M 3859 4513 
L 3738 3897 
Q 3422 4066 3111 4152 
Q 2800 4238 2509 4238 
Q 1944 4238 1609 3991 
Q 1275 3744 1275 3334 
Q 1275 3109 1398 2989 
Q 1522 2869 2034 2731 
L 2413 2638 
Q 3053 2472 3303 2217 
Q 3553 1963 3553 1503 
Q 3553 797 2998 353 
Q 2444 -91 1538 -91 
Q 1166 -91 791 -17 
Q 416 56 38 206 
L 166 856 
Q 513 641 861 531 
Q 1209 422 1556 422 
Q 2147 422 2503 684 
Q 2859 947 2859 1369 
Q 2859 1650 2717 1795 
Q 2575 1941 2106 2059 
L 1728 2156 
Q 1081 2325 845 2545 
Q 609 2766 609 3163 
Q 609 3859 1145 4304 
Q 1681 4750 2541 4750 
Q 2875 4750 3203 4690 
Q 3531 4631 3859 4513 
z
" transform="scale(0.015625)"/>
       <path id="DejaVuSans-29" d="M 513 4856 
L 1013 4856 
Q 1481 4119 1714 3412 
Q 1947 2706 1947 2009 
Q 1947 1309 1714 600 
Q 1481 -109 1013 -844 
L 513 -844 
Q 928 -128 1133 580 
Q 1338 1288 1338 2009 
Q 1338 2731 1133 3434 
Q 928 4138 513 4856 
z
" transform="scale(0.015625)"/>
      </defs>
      <use xlink:href="#DejaVuSans-Oblique-74" transform="translate(0 0.125)"/>
      <use xlink:href="#DejaVuSans-28" transform="translate(39.208984 0.125)"/>
      <use xlink:href="#DejaVuSans-Oblique-53" transform="translate(78.222656 0.125)"/>
      <use xlink:href="#DejaVuSans-29" transform="translate(141.699219 0.125)"/>
     </g>
    </g>
    <g id="text_8">
     <!-- 1e−5 -->
     <g transform="translate(388.385625 300.588562) scale(0.1 -0.1)">
      <defs>
       <path id="DejaVuSans-65" d="M 3597 1894 
L 3597 1613 
L 953 1613 
Q 991 1019 1311 708 
Q 1631 397 2203 397 
Q 2534 397 2845 478 
Q 3156 559 3463 722 
L 3463 178 
Q 3153 47 2828 -22 
Q 2503 -91 2169 -91 
Q 1331 -91 842 396 
Q 353 884 353 1716 
Q 353 2575 817 3079 
Q 1281 3584 2069 3584 
Q 2775 3584 3186 3129 
Q 3597 2675 3597 1894 
z
M 3022 2063 
Q 3016 2534 2758 2815 
Q 2500 3097 2075 3097 
Q 1594 3097 1305 2825 
Q 1016 2553 972 2059 
L 3022 2063 
z
" transform="scale(0.015625)"/>
       <path id="DejaVuSans-2212" d="M 678 2272 
L 4684 2272 
L 4684 1741 
L 678 1741 
L 678 2272 
z
" transform="scale(0.015625)"/>
      </defs>
      <use xlink:href="#DejaVuSans-31"/>
      <use xlink:href="#DejaVuSans-65" x="63.623047"/>
      <use xlink:href="#DejaVuSans-2212" x="125.146484"/>
      <use xlink:href="#DejaVuSans-35" x="208.935547"/>
     </g>
    </g>
   </g>
   <g id="matplotlib.axis_2">
    <g id="ytick_1">
     <g id="line2d_7">
      <defs>
       <path id="m8c01d5de5a" d="M 0 0 
L -3.5 0 
" style="stroke: #000000; stroke-width: 0.8"/>
      </defs>
      <g>
       <use xlink:href="#m8c01d5de5a" x="58.523438" y="270.418996" style="stroke: #000000; stroke-width: 0.8"/>
      </g>
     </g>
     <g id="text_9">
      <!-- −0.25 -->
      <g transform="translate(20.878125 274.218214) scale(0.1 -0.1)">
       <defs>
        <path id="DejaVuSans-2e" d="M 684 794 
L 1344 794 
L 1344 0 
L 684 0 
L 684 794 
z
" transform="scale(0.015625)"/>
       </defs>
       <use xlink:href="#DejaVuSans-2212"/>
       <use xlink:href="#DejaVuSans-30" x="83.789062"/>
       <use xlink:href="#DejaVuSans-2e" x="147.412109"/>
       <use xlink:href="#DejaVuSans-32" x="179.199219"/>
       <use xlink:href="#DejaVuSans-35" x="242.822266"/>
      </g>
     </g>
    </g>
    <g id="ytick_2">
     <g id="line2d_8">
      <g>
       <use xlink:href="#m8c01d5de5a" x="58.523438" y="236.87815" style="stroke: #000000; stroke-width: 0.8"/>
      </g>
     </g>
     <g id="text_10">
      <!-- 0.00 -->
      <g transform="translate(29.257813 240.677368) scale(0.1 -0.1)">
       <use xlink:href="#DejaVuSans-30"/>
       <use xlink:href="#DejaVuSans-2e" x="63.623047"/>
       <use xlink:href="#DejaVuSans-30" x="95.410156"/>
       <use xlink:href="#DejaVuSans-30" x="159.033203"/>
      </g>
     </g>
    </g>
    <g id="ytick_3">
     <g id="line2d_9">
      <g>
       <use xlink:href="#m8c01d5de5a" x="58.523438" y="203.337303" style="stroke: #000000; stroke-width: 0.8"/>
      </g>
     </g>
     <g id="text_11">
      <!-- 0.25 -->
      <g transform="translate(29.257813 207.136522) scale(0.1 -0.1)">
       <use xlink:href="#DejaVuSans-30"/>
       <use xlink:href="#DejaVuSans-2e" x="63.623047"/>
       <use xlink:href="#DejaVuSans-32" x="95.410156"/>
       <use xlink:href="#DejaVuSans-35" x="159.033203"/>
      </g>
     </g>
    </g>
    <g id="ytick_4">
     <g id="line2d_10">
      <g>
       <use xlink:href="#m8c01d5de5a" x="58.523438" y="169.796457" style="stroke: #000000; stroke-width: 0.8"/>
      </g>
     </g>
     <g id="text_12">
      <!-- 0.50 -->
      <g transform="translate(29.257813 173.595676) scale(0.1 -0.1)">
       <use xlink:href="#DejaVuSans-30"/>
       <use xlink:href="#DejaVuSans-2e" x="63.623047"/>
       <use xlink:href="#DejaVuSans-35" x="95.410156"/>
       <use xlink:href="#DejaVuSans-30" x="159.033203"/>
      </g>
     </g>
    </g>
    <g id="ytick_5">
     <g id="line2d_11">
      <g>
       <use xlink:href="#m8c01d5de5a" x="58.523438" y="136.255611" style="stroke: #000000; stroke-width: 0.8"/>
      </g>
     </g>
     <g id="text_13">
      <!-- 0.75 -->
      <g transform="translate(29.257813 140.05483) scale(0.1 -0.1)">
       <defs>
        <path id="DejaVuSans-37" d="M 525 4666 
L 3525 4666 
L 3525 4397 
L 1831 0 
L 1172 0 
L 2766 4134 
L 525 4134 
L 525 4666 
z
" transform="scale(0.015625)"/>
       </defs>
       <use xlink:href="#DejaVuSans-30"/>
       <use xlink:href="#DejaVuSans-2e" x="63.623047"/>
       <use xlink:href="#DejaVuSans-37" x="95.410156"/>
       <use xlink:href="#DejaVuSans-35" x="159.033203"/>
      </g>
     </g>
    </g>
    <g id="ytick_6">
     <g id="line2d_12">
      <g>
       <use xlink:href="#m8c01d5de5a" x="58.523438" y="102.714765" style="stroke: #000000; stroke-width: 0.8"/>
      </g>
     </g>
     <g id="text_14">
      <!-- 1.00 -->
      <g transform="translate(29.257813 106.513984) scale(0.1 -0.1)">
       <use xlink:href="#DejaVuSans-31"/>
       <use xlink:href="#DejaVuSans-2e" x="63.623047"/>
       <use xlink:href="#DejaVuSans-30" x="95.410156"/>
       <use xlink:href="#DejaVuSans-30" x="159.033203"/>
      </g>
     </g>
    </g>
    <g id="ytick_7">
     <g id="line2d_13">
      <g>
       <use xlink:href="#m8c01d5de5a" x="58.523438" y="69.173919" style="stroke: #000000; stroke-width: 0.8"/>
      </g>
     </g>
     <g id="text_15">
      <!-- 1.25 -->
      <g transform="translate(29.257813 72.973138) scale(0.1 -0.1)">
       <use xlink:href="#DejaVuSans-31"/>
       <use xlink:href="#DejaVuSans-2e" x="63.623047"/>
       <use xlink:href="#DejaVuSans-32" x="95.410156"/>
       <use xlink:href="#DejaVuSans-35" x="159.033203"/>
      </g>
     </g>
    </g>
    <g id="ytick_8">
     <g id="line2d_14">
      <g>
       <use xlink:href="#m8c01d5de5a" x="58.523438" y="35.633073" style="stroke: #000000; stroke-width: 0.8"/>
      </g>
     </g>
     <g id="text_16">
      <!-- 1.50 -->
      <g transform="translate(29.257813 39.432292) scale(0.1 -0.1)">
       <use xlink:href="#DejaVuSans-31"/>
       <use xlink:href="#DejaVuSans-2e" x="63.623047"/>
       <use xlink:href="#DejaVuSans-35" x="95.410156"/>
       <use xlink:href="#DejaVuSans-30" x="159.033203"/>
      </g>
     </g>
    </g>
    <g id="text_17">
     <!-- $V (V)$ -->
     <g transform="translate(14.798438 151.006) rotate(-90) scale(0.1 -0.1)">
      <defs>
       <path id="DejaVuSans-Oblique-56" d="M 1319 0 
L 500 4666 
L 1119 4666 
L 1797 653 
L 4063 4666 
L 4750 4666 
L 2053 0 
L 1319 0 
z
" transform="scale(0.015625)"/>
      </defs>
      <use xlink:href="#DejaVuSans-Oblique-56" transform="translate(0 0.125)"/>
      <use xlink:href="#DejaVuSans-28" transform="translate(68.408203 0.125)"/>
      <use xlink:href="#DejaVuSans-Oblique-56" transform="translate(107.421875 0.125)"/>
      <use xlink:href="#DejaVuSans-29" transform="translate(175.830078 0.125)"/>
     </g>
    </g>
   </g>
   <g id="line2d_15">
    <path d="M 74.756165 236.87815 
L 74.788633 200.370764 
L 74.88604 200.612201 
L 75.63282 202.14344 
L 76.282194 203.019862 
L 76.834162 203.437256 
L 77.353661 203.559674 
L 77.840691 203.440335 
L 78.360191 203.067967 
L 78.944627 202.353147 
L 79.62647 201.133734 
L 80.405719 199.249033 
L 81.314842 196.417231 
L 82.353841 192.393837 
L 83.522714 186.938795 
L 84.8864 179.454524 
L 86.477366 169.403478 
L 88.393019 155.779772 
L 90.893109 136.262681 
L 99.075222 71.093434 
L 101.153219 56.998902 
L 102.906529 46.551332 
L 104.465027 38.542157 
L 105.861181 32.479874 
L 107.12746 27.941009 
L 108.263865 24.670157 
L 109.270394 22.417999 
L 110.179518 20.907873 
L 110.958767 20.009024 
L 111.673078 19.503908 
L 112.322452 19.306868 
L 112.939358 19.348153 
L 113.556263 19.608826 
L 114.238106 20.147635 
L 114.984886 21.033005 
L 115.829072 22.394692 
L 116.770664 24.348117 
L 117.842132 27.100674 
L 119.075942 30.922395 
L 120.472096 36.013569 
L 122.063063 42.686271 
L 123.978716 51.738245 
L 126.3814 64.242324 
L 130.699737 88.166576 
L 134.271294 107.378686 
L 136.64151 118.948773 
L 138.589632 127.409786 
L 140.310473 133.936911 
L 141.836502 138.896704 
L 143.232656 142.704556 
L 144.498935 145.52987 
L 145.63534 147.544895 
L 146.674338 148.952222 
L 147.615931 149.868731 
L 148.492586 150.417446 
L 149.304303 150.666851 
L 150.083552 150.676167 
L 150.862801 150.464708 
L 151.706987 149.992867 
L 152.616111 149.211492 
L 153.590172 148.072741 
L 154.694108 146.424871 
L 155.927918 144.164651 
L 157.324072 141.122785 
L 158.947508 137.019373 
L 160.863161 131.531902 
L 163.265845 123.929024 
L 167.64912 109.143022 
L 171.188208 97.580807 
L 173.558423 90.579649 
L 175.506545 85.483085 
L 177.227386 81.573149 
L 178.785884 78.56546 
L 180.182038 76.330936 
L 181.480786 74.658221 
L 182.682128 73.466692 
L 183.786064 72.675472 
L 184.825063 72.195758 
L 185.831592 71.973352 
L 186.805653 71.98107 
L 187.812183 72.21363 
L 188.851182 72.685237 
L 189.955117 73.433076 
L 191.156459 74.519922 
L 192.487676 76.032805 
L 193.981236 78.079487 
L 195.702078 80.835814 
L 197.715137 84.500582 
L 200.312633 89.725689 
L 209.468807 108.582084 
L 211.611741 112.267792 
L 213.494926 115.081828 
L 215.183298 117.219857 
L 216.741796 118.843958 
L 218.170419 120.023984 
L 219.534104 120.868112 
L 220.832852 121.413768 
L 222.099132 121.704594 
L 223.332942 121.762923 
L 224.599222 121.598481 
L 225.89797 121.203409 
L 227.261655 120.555376 
L 228.755216 119.591565 
L 230.378651 118.272129 
L 232.229367 116.468988 
L 234.40477 114.020725 
L 237.197078 110.517095 
L 246.125971 99.05704 
L 248.463717 96.558703 
L 250.509246 94.689099 
L 252.359962 93.289203 
L 254.080803 92.256544 
L 255.736706 91.518427 
L 257.327673 91.049605 
L 258.886171 90.818099 
L 260.444668 90.807281 
L 262.068103 91.021538 
L 263.756476 91.474068 
L 265.542254 92.186263 
L 267.522845 93.224211 
L 269.763185 94.66047 
L 272.490556 96.68922 
L 276.743956 100.173967 
L 281.64673 104.114668 
L 284.503976 106.123221 
L 286.939129 107.568305 
L 289.147 108.623847 
L 291.224997 109.37346 
L 293.238057 109.863148 
L 295.218647 110.115036 
L 297.199238 110.14299 
L 299.244766 109.947774 
L 301.387701 109.518132 
L 303.725447 108.817818 
L 306.387881 107.778229 
L 309.66722 106.244509 
L 321.583233 100.437474 
L 324.440479 99.428151 
L 327.070443 98.731771 
L 329.603002 98.291693 
L 332.103092 98.085314 
L 334.635651 98.102384 
L 337.265616 98.344742 
L 340.122861 98.835977 
L 343.4022 99.634125 
L 347.720538 100.933205 
L 357.331273 103.891049 
L 360.967768 104.730781 
L 364.247107 105.262909 
L 367.396571 105.549639 
L 370.546035 105.613098 
L 373.825374 105.455884 
L 377.429399 105.056757 
L 381.780205 104.340634 
L 398.339243 101.377519 
L 399.41071 101.262434 
L 399.41071 101.262434 
" clip-path="url(#p1c8f7ed9af)" style="fill: none; stroke: #1f77b4; stroke-width: 1.5; stroke-linecap: square"/>
   </g>
   <g id="line2d_16">
    <path d="M 74.756165 236.87815 
L 74.88604 163.151529 
L 75.892569 159.435167 
L 76.834162 156.759991 
L 77.678348 154.982942 
L 78.457597 153.834107 
L 79.139439 153.194088 
L 79.756345 152.892509 
L 80.340781 152.836844 
L 80.957687 153.007339 
L 81.607061 153.425674 
L 82.353841 154.188065 
L 83.198027 155.381143 
L 84.204557 157.212851 
L 85.405899 159.897778 
L 86.86699 163.747888 
L 88.782644 169.470128 
L 95.666008 190.625382 
L 97.289444 194.606978 
L 98.653129 197.397317 
L 99.854471 199.375202 
L 100.925938 200.725311 
L 101.86753 201.570434 
L 102.711717 202.045981 
L 103.490966 202.242046 
L 104.237746 202.207461 
L 104.984526 201.952936 
L 105.763775 201.451797 
L 106.607961 200.6377 
L 107.549553 199.399395 
L 108.556083 197.696456 
L 109.692487 195.314928 
L 110.958767 192.110486 
L 112.354921 187.943242 
L 113.913419 182.570324 
L 115.699197 175.588368 
L 117.809663 166.397726 
L 120.504565 153.597194 
L 130.115301 106.983357 
L 132.323172 97.885294 
L 134.206357 91.01996 
L 135.89473 85.663166 
L 137.420759 81.524685 
L 138.816913 78.352337 
L 140.083192 75.996299 
L 141.252065 74.266725 
L 142.323532 73.05691 
L 143.330062 72.245046 
L 144.271655 71.766052 
L 145.148309 71.558922 
L 146.024964 71.57634 
L 146.934088 71.82438 
L 147.87568 72.318977 
L 148.88221 73.102945 
L 149.986146 74.248837 
L 151.219957 75.85798 
L 152.616111 78.057255 
L 154.239546 81.054795 
L 156.155199 85.090111 
L 158.590352 90.779904 
L 163.590532 103.216499 
L 166.707527 110.598486 
L 168.980336 115.430057 
L 170.89599 119.001711 
L 172.584362 121.701767 
L 174.110391 123.743979 
L 175.506545 125.260726 
L 176.805293 126.359211 
L 178.039104 127.118935 
L 179.207977 127.582564 
L 180.344382 127.796108 
L 181.480786 127.779715 
L 182.617191 127.53941 
L 183.818533 127.050816 
L 185.084812 126.287605 
L 186.448498 125.199254 
L 187.942058 123.71739 
L 189.63043 121.719604 
L 191.578552 119.058048 
L 193.981236 115.378276 
L 197.6502 109.292903 
L 202.455567 101.397834 
L 205.020595 97.61631 
L 207.163529 94.841021 
L 209.046714 92.752763 
L 210.767555 91.165197 
L 212.358521 89.988448 
L 213.88455 89.132225 
L 215.345642 88.566261 
L 216.774265 88.252426 
L 218.170419 88.17062 
L 219.599042 88.309767 
L 221.092602 88.684924 
L 222.6511 89.310373 
L 224.339472 90.233666 
L 226.222657 91.528349 
L 228.365591 93.282962 
L 230.995556 95.738542 
L 235.346362 100.161075 
L 239.697168 104.473286 
L 242.39207 106.836742 
L 244.697348 108.56969 
L 246.775345 109.857435 
L 248.690998 110.789435 
L 250.541714 111.444268 
L 252.327493 111.842184 
L 254.113271 112.011194 
L 255.89905 111.957497 
L 257.749766 111.67876 
L 259.697888 111.159054 
L 261.808354 110.363499 
L 264.211038 109.211464 
L 267.100752 107.565873 
L 271.581433 104.719715 
L 276.776425 101.486749 
L 279.828483 99.852871 
L 282.425979 98.707772 
L 284.828663 97.887968 
L 287.101472 97.343526 
L 289.341812 97.034409 
L 291.582153 96.949815 
L 293.887431 97.087074 
L 296.322583 97.45882 
L 298.985017 98.096607 
L 302.069543 99.074726 
L 306.1606 100.624948 
L 314.862212 103.977143 
L 318.271425 105.009159 
L 321.291015 105.694316 
L 324.14826 106.116838 
L 326.973037 106.309245 
L 329.830283 106.280682 
L 332.849872 106.026098 
L 336.194149 105.515764 
L 340.252736 104.65972 
L 355.610432 101.183767 
L 359.311864 100.717801 
L 362.883421 100.491852 
L 366.487447 100.487917 
L 370.351222 100.71114 
L 374.799435 101.199976 
L 381.293175 102.165929 
L 389.864912 103.404118 
L 394.800155 103.881865 
L 399.345773 104.09794 
L 399.41071 104.099385 
L 399.41071 104.099385 
" clip-path="url(#p1c8f7ed9af)" style="fill: none; stroke: #ff7f0e; stroke-width: 1.5; stroke-linecap: square"/>
   </g>
   <g id="line2d_17">
    <path d="M 74.756165 236.87815 
L 74.788633 261.216 
L 74.88604 261.048935 
L 76.86663 257.418742 
L 78.587472 253.798528 
L 80.275844 249.716163 
L 81.964216 245.036753 
L 83.717526 239.499932 
L 85.568242 232.888993 
L 87.548833 224.960672 
L 89.724236 215.308793 
L 92.224326 203.16798 
L 95.37379 186.69612 
L 105.439088 133.172679 
L 107.906709 121.740009 
L 110.017175 112.973675 
L 111.900359 106.061929 
L 113.6212 100.566089 
L 115.179698 96.301448 
L 116.608321 93.005026 
L 117.939538 90.467371 
L 119.173348 88.575014 
L 120.309753 87.219024 
L 121.38122 86.274081 
L 122.38775 85.674007 
L 123.361811 85.350504 
L 124.303403 85.269726 
L 125.244995 85.407588 
L 126.251525 85.785055 
L 127.322992 86.432956 
L 128.491866 87.408377 
L 129.790614 88.791157 
L 131.284174 90.72437 
L 133.005015 93.33362 
L 135.115481 96.961213 
L 138.13507 102.644177 
L 143.557343 112.876789 
L 145.89509 116.780862 
L 147.843212 119.622351 
L 149.564053 121.756671 
L 151.122551 123.350378 
L 152.551173 124.50845 
L 153.914859 125.332817 
L 155.181138 125.847571 
L 156.414949 126.115773 
L 157.648759 126.15545 
L 158.88257 125.971033 
L 160.148849 125.556026 
L 161.480066 124.884142 
L 162.908689 123.910804 
L 164.467187 122.57564 
L 166.220497 120.771215 
L 168.233556 118.367806 
L 170.701177 115.055284 
L 174.402609 109.664881 
L 179.402789 102.444135 
L 182.032754 99.043763 
L 184.240626 96.543303 
L 186.188748 94.663045 
L 187.974527 93.239309 
L 189.662899 92.174482 
L 191.253865 91.429843 
L 192.779894 90.954151 
L 194.305923 90.710321 
L 195.831952 90.692778 
L 197.39045 90.898871 
L 199.013885 91.339943 
L 200.767195 92.054303 
L 202.682848 93.085068 
L 204.825783 94.498042 
L 207.423279 96.490235 
L 211.222117 99.718683 
L 216.806733 104.437361 
L 219.63151 106.518506 
L 222.001726 107.997806 
L 224.177129 109.097838 
L 226.222657 109.883799 
L 228.170779 110.396984 
L 230.086432 110.674271 
L 232.002086 110.729167 
L 233.982677 110.561591 
L 236.060673 110.157778 
L 238.301014 109.488793 
L 240.801104 108.501383 
L 243.788224 107.070216 
L 248.301374 104.626192 
L 253.983397 101.599577 
L 257.165329 100.16223 
L 259.925169 99.156445 
L 262.457728 98.466722 
L 264.89288 98.031349 
L 267.295564 97.825755 
L 269.730717 97.839404 
L 272.295744 98.079726 
L 275.055584 98.567233 
L 278.172579 99.349763 
L 282.166229 100.597039 
L 293.108182 104.140107 
L 296.582333 104.954101 
L 299.731797 105.46742 
L 302.783855 105.741134 
L 305.868381 105.792161 
L 309.082783 105.618981 
L 312.589403 105.203092 
L 316.810334 104.467983 
L 324.66776 102.813055 
L 330.317314 101.74936 
L 334.570714 101.174598 
L 338.466958 100.871295 
L 342.330733 100.794214 
L 346.389321 100.938709 
L 350.999876 101.332415 
L 357.428679 102.128186 
L 367.461508 103.361823 
L 372.688969 103.762059 
L 377.559274 103.912632 
L 382.591923 103.843007 
L 388.40382 103.531427 
L 398.728867 102.701054 
L 399.41071 102.647052 
L 399.41071 102.647052 
" clip-path="url(#p1c8f7ed9af)" style="fill: none; stroke: #2ca02c; stroke-width: 1.5; stroke-linecap: square"/>
   </g>
   <g id="patch_3">
    <path d="M 58.523438 273.312 
L 58.523438 7.2 
" style="fill: none; stroke: #000000; stroke-width: 0.8; stroke-linejoin: miter; stroke-linecap: square"/>
   </g>
   <g id="patch_4">
    <path d="M 415.643438 273.312 
L 415.643438 7.2 
" style="fill: none; stroke: #000000; stroke-width: 0.8; stroke-linejoin: miter; stroke-linecap: square"/>
   </g>
   <g id="patch_5">
    <path d="M 58.523438 273.312 
L 415.643438 273.312 
" style="fill: none; stroke: #000000; stroke-width: 0.8; stroke-linejoin: miter; stroke-linecap: square"/>
   </g>
   <g id="patch_6">
    <path d="M 58.523438 7.2 
L 415.643438 7.2 
" style="fill: none; stroke: #000000; stroke-width: 0.8; stroke-linejoin: miter; stroke-linecap: square"/>
   </g>
   <g id="legend_1">
    <g id="patch_7">
     <path d="M 360.143438 59.234375 
L 408.643438 59.234375 
Q 410.643438 59.234375 410.643438 57.234375 
L 410.643438 14.2 
Q 410.643438 12.2 408.643438 12.2 
L 360.143438 12.2 
Q 358.143438 12.2 358.143438 14.2 
L 358.143438 57.234375 
Q 358.143438 59.234375 360.143438 59.234375 
z
" style="fill: #ffffff; opacity: 0.8; stroke: #cccccc; stroke-linejoin: miter"/>
    </g>
    <g id="line2d_18">
     <path d="M 362.143438 20.298437 
L 372.143438 20.298437 
L 382.143438 20.298437 
" style="fill: none; stroke: #1f77b4; stroke-width: 1.5; stroke-linecap: square"/>
    </g>
    <g id="text_18">
     <!-- $V_{C1}$ -->
     <g transform="translate(390.143438 23.798437) scale(0.1 -0.1)">
      <defs>
       <path id="DejaVuSans-Oblique-43" d="M 4447 4306 
L 4319 3641 
Q 4019 3944 3683 4091 
Q 3347 4238 2956 4238 
Q 2422 4238 2017 3981 
Q 1613 3725 1319 3200 
Q 1131 2863 1032 2486 
Q 934 2109 934 1728 
Q 934 1091 1264 756 
Q 1594 422 2222 422 
Q 2656 422 3056 561 
Q 3456 700 3834 978 
L 3688 231 
Q 3316 72 2936 -9 
Q 2556 -91 2175 -91 
Q 1278 -91 773 396 
Q 269 884 269 1753 
Q 269 2309 461 2846 
Q 653 3384 1013 3828 
Q 1394 4300 1883 4525 
Q 2372 4750 3022 4750 
Q 3422 4750 3780 4639 
Q 4138 4528 4447 4306 
z
" transform="scale(0.015625)"/>
      </defs>
      <use xlink:href="#DejaVuSans-Oblique-56" transform="translate(0 0.09375)"/>
      <use xlink:href="#DejaVuSans-Oblique-43" transform="translate(68.408203 -16.3125) scale(0.7)"/>
      <use xlink:href="#DejaVuSans-31" transform="translate(117.285156 -16.3125) scale(0.7)"/>
     </g>
    </g>
    <g id="line2d_19">
     <path d="M 362.143438 34.976562 
L 372.143438 34.976562 
L 382.143438 34.976562 
" style="fill: none; stroke: #ff7f0e; stroke-width: 1.5; stroke-linecap: square"/>
    </g>
    <g id="text_19">
     <!-- $V_{C2}$ -->
     <g transform="translate(390.143438 38.476562) scale(0.1 -0.1)">
      <use xlink:href="#DejaVuSans-Oblique-56" transform="translate(0 0.09375)"/>
      <use xlink:href="#DejaVuSans-Oblique-43" transform="translate(68.408203 -16.3125) scale(0.7)"/>
      <use xlink:href="#DejaVuSans-32" transform="translate(117.285156 -16.3125) scale(0.7)"/>
     </g>
    </g>
    <g id="line2d_20">
     <path d="M 362.143438 49.654687 
L 372.143438 49.654687 
L 382.143438 49.654687 
" style="fill: none; stroke: #2ca02c; stroke-width: 1.5; stroke-linecap: square"/>
    </g>
    <g id="text_20">
     <!-- $V_{C3}$ -->
     <g transform="translate(390.143438 53.154687) scale(0.1 -0.1)">
      <use xlink:href="#DejaVuSans-Oblique-56" transform="translate(0 0.09375)"/>
      <use xlink:href="#DejaVuSans-Oblique-43" transform="translate(68.408203 -16.3125) scale(0.7)"/>
      <use xlink:href="#DejaVuSans-33" transform="translate(117.285156 -16.3125) scale(0.7)"/>
     </g>
    </g>
   </g>
  </g>
  <g id="axes_2">
   <g id="matplotlib.axis_3">
    <g id="ytick_9">
     <g id="line2d_21">
      <defs>
       <path id="m77d5959265" d="M 0 0 
L 3.5 0 
" style="stroke: #000000; stroke-width: 0.8"/>
      </defs>
      <g>
       <use xlink:href="#m77d5959265" x="415.643438" y="234.946853" style="stroke: #000000; stroke-width: 0.8"/>
      </g>
     </g>
     <g id="text_21">
      <!-- −0.0005 -->
      <g transform="translate(422.643438 238.746072) scale(0.1 -0.1)">
       <use xlink:href="#DejaVuSans-2212"/>
       <use xlink:href="#DejaVuSans-30" x="83.789062"/>
       <use xlink:href="#DejaVuSans-2e" x="147.412109"/>
       <use xlink:href="#DejaVuSans-30" x="179.199219"/>
       <use xlink:href="#DejaVuSans-30" x="242.822266"/>
       <use xlink:href="#DejaVuSans-30" x="306.445312"/>
       <use xlink:href="#DejaVuSans-35" x="370.068359"/>
      </g>
     </g>
    </g>
    <g id="ytick_10">
     <g id="line2d_22">
      <g>
       <use xlink:href="#m77d5959265" x="415.643438" y="182.706205" style="stroke: #000000; stroke-width: 0.8"/>
      </g>
     </g>
     <g id="text_22">
      <!-- 0.0000 -->
      <g transform="translate(422.643438 186.505424) scale(0.1 -0.1)">
       <use xlink:href="#DejaVuSans-30"/>
       <use xlink:href="#DejaVuSans-2e" x="63.623047"/>
       <use xlink:href="#DejaVuSans-30" x="95.410156"/>
       <use xlink:href="#DejaVuSans-30" x="159.033203"/>
       <use xlink:href="#DejaVuSans-30" x="222.65625"/>
       <use xlink:href="#DejaVuSans-30" x="286.279297"/>
      </g>
     </g>
    </g>
    <g id="ytick_11">
     <g id="line2d_23">
      <g>
       <use xlink:href="#m77d5959265" x="415.643438" y="130.465557" style="stroke: #000000; stroke-width: 0.8"/>
      </g>
     </g>
     <g id="text_23">
      <!-- 0.0005 -->
      <g transform="translate(422.643438 134.264776) scale(0.1 -0.1)">
       <use xlink:href="#DejaVuSans-30"/>
       <use xlink:href="#DejaVuSans-2e" x="63.623047"/>
       <use xlink:href="#DejaVuSans-30" x="95.410156"/>
       <use xlink:href="#DejaVuSans-30" x="159.033203"/>
       <use xlink:href="#DejaVuSans-30" x="222.65625"/>
       <use xlink:href="#DejaVuSans-35" x="286.279297"/>
      </g>
     </g>
    </g>
    <g id="ytick_12">
     <g id="line2d_24">
      <g>
       <use xlink:href="#m77d5959265" x="415.643438" y="78.224909" style="stroke: #000000; stroke-width: 0.8"/>
      </g>
     </g>
     <g id="text_24">
      <!-- 0.0010 -->
      <g transform="translate(422.643438 82.024128) scale(0.1 -0.1)">
       <use xlink:href="#DejaVuSans-30"/>
       <use xlink:href="#DejaVuSans-2e" x="63.623047"/>
       <use xlink:href="#DejaVuSans-30" x="95.410156"/>
       <use xlink:href="#DejaVuSans-30" x="159.033203"/>
       <use xlink:href="#DejaVuSans-31" x="222.65625"/>
       <use xlink:href="#DejaVuSans-30" x="286.279297"/>
      </g>
     </g>
    </g>
    <g id="ytick_13">
     <g id="line2d_25">
      <g>
       <use xlink:href="#m77d5959265" x="415.643438" y="25.984261" style="stroke: #000000; stroke-width: 0.8"/>
      </g>
     </g>
     <g id="text_25">
      <!-- 0.0015 -->
      <g transform="translate(422.643438 29.783479) scale(0.1 -0.1)">
       <use xlink:href="#DejaVuSans-30"/>
       <use xlink:href="#DejaVuSans-2e" x="63.623047"/>
       <use xlink:href="#DejaVuSans-30" x="95.410156"/>
       <use xlink:href="#DejaVuSans-30" x="159.033203"/>
       <use xlink:href="#DejaVuSans-31" x="222.65625"/>
       <use xlink:href="#DejaVuSans-35" x="286.279297"/>
      </g>
     </g>
    </g>
    <g id="text_26">
     <!-- $i (A)$ -->
     <g transform="translate(477.612188 149.006) rotate(-90) scale(0.1 -0.1)">
      <defs>
       <path id="DejaVuSans-Oblique-69" d="M 1172 4863 
L 1747 4863 
L 1606 4134 
L 1031 4134 
L 1172 4863 
z
M 909 3500 
L 1484 3500 
L 800 0 
L 225 0 
L 909 3500 
z
" transform="scale(0.015625)"/>
       <path id="DejaVuSans-Oblique-41" d="M 2356 4666 
L 3072 4666 
L 3938 0 
L 3278 0 
L 3084 1197 
L 984 1197 
L 325 0 
L -341 0 
L 2356 4666 
z
M 2584 4044 
L 1275 1722 
L 2988 1722 
L 2584 4044 
z
" transform="scale(0.015625)"/>
      </defs>
      <use xlink:href="#DejaVuSans-Oblique-69" transform="translate(0 0.015625)"/>
      <use xlink:href="#DejaVuSans-28" transform="translate(27.783203 0.015625)"/>
      <use xlink:href="#DejaVuSans-Oblique-41" transform="translate(66.796875 0.015625)"/>
      <use xlink:href="#DejaVuSans-29" transform="translate(135.205078 0.015625)"/>
     </g>
    </g>
   </g>
   <g id="line2d_26">
    <path d="M 74.756165 182.706205 
L 79.399189 127.048266 
L 82.256435 94.483129 
L 84.334432 73.239492 
L 86.055273 57.795687 
L 87.581302 46.021291 
L 88.912519 37.37917 
L 90.113861 30.968273 
L 91.185328 26.406173 
L 92.12692 23.317987 
L 92.938638 21.35574 
L 93.652949 20.167561 
L 94.269854 19.546982 
L 94.789354 19.314873 
L 95.276384 19.337101 
L 95.763415 19.589731 
L 96.315383 20.151938 
L 96.932288 21.122821 
L 97.646599 22.69094 
L 98.458317 25.037685 
L 99.399909 28.488569 
L 100.471376 33.326027 
L 101.672718 39.8347 
L 103.036404 48.502193 
L 104.594901 59.892567 
L 106.445617 75.158469 
L 108.718426 95.888306 
L 112.062703 128.701198 
L 117.160289 178.573579 
L 119.595441 200.16527 
L 121.608501 216.131211 
L 123.361811 228.345447 
L 124.920308 237.718474 
L 126.316463 244.841453 
L 127.582742 250.214657 
L 128.719147 254.134418 
L 129.758145 256.962795 
L 130.667269 258.844718 
L 131.478986 260.05974 
L 132.193298 260.769321 
L 132.842672 261.125871 
L 133.459577 261.2138 
L 134.044014 261.075421 
L 134.660919 260.6998 
L 135.342762 260.016547 
L 136.12201 258.90079 
L 136.998665 257.234141 
L 138.005195 254.808919 
L 139.1416 251.454264 
L 140.440348 246.885686 
L 141.933908 240.770404 
L 143.687218 232.597212 
L 145.830152 221.482209 
L 148.914679 204.169421 
L 154.369421 173.487919 
L 156.739636 161.515789 
L 158.687758 152.767882 
L 160.37613 146.151039 
L 161.902159 141.032559 
L 163.265845 137.200962 
L 164.499655 134.364239 
L 165.603591 132.345674 
L 166.610121 130.937564 
L 167.519245 130.020739 
L 168.363431 129.46955 
L 169.14268 129.214663 
L 169.88946 129.195839 
L 170.63624 129.393672 
L 171.447958 129.848859 
L 172.324613 130.613324 
L 173.266205 131.73838 
L 174.337672 133.383282 
L 175.539014 135.660366 
L 176.902699 138.753385 
L 178.461197 142.875279 
L 180.279444 148.350597 
L 182.519785 155.85112 
L 185.799124 167.703602 
L 190.89671 186.079524 
L 193.331862 193.993039 
L 195.344922 199.805088 
L 197.098232 204.212671 
L 198.656729 207.557286 
L 200.085352 210.114943 
L 201.3841 212.000107 
L 202.585442 213.362133 
L 203.689378 214.287311 
L 204.728377 214.872885 
L 205.702438 215.173098 
L 206.64403 215.238187 
L 207.618091 215.077938 
L 208.624621 214.676485 
L 209.696088 213.995953 
L 210.832492 213.003066 
L 212.098772 211.589163 
L 213.494926 209.686193 
L 215.085892 207.127765 
L 216.936608 203.711522 
L 219.209417 199.021153 
L 222.521225 191.616559 
L 227.748686 179.957172 
L 230.216307 175.020138 
L 232.261835 171.403794 
L 234.080083 168.629102 
L 235.703518 166.543075 
L 237.197078 164.972994 
L 238.593232 163.820026 
L 239.89198 163.025923 
L 241.125791 162.521221 
L 242.327133 162.261793 
L 243.528475 162.227083 
L 244.762285 162.418585 
L 246.028565 162.844776 
L 247.359781 163.530079 
L 248.820873 164.542099 
L 250.411839 165.923797 
L 252.197618 167.776833 
L 254.308084 170.302479 
L 257.002986 173.902461 
L 266.581253 187.032136 
L 268.821593 189.550926 
L 270.802184 191.454514 
L 272.620431 192.899418 
L 274.308804 193.96193 
L 275.89977 194.707043 
L 277.458268 195.192123 
L 278.984297 195.433117 
L 280.510326 195.44739 
L 282.068823 195.236784 
L 283.692258 194.789063 
L 285.4131 194.080153 
L 287.296284 193.058112 
L 289.40675 191.653624 
L 291.939309 189.688919 
L 295.478397 186.633367 
L 301.842262 181.119444 
L 304.602102 179.047319 
L 306.972317 177.537702 
L 309.115252 176.429336 
L 311.128311 175.632513 
L 313.076433 175.098121 
L 314.992087 174.803138 
L 316.90774 174.733665 
L 318.855862 174.885035 
L 320.90139 175.268405 
L 323.109262 175.913425 
L 325.576883 176.874745 
L 328.499066 178.263784 
L 332.719998 180.545174 
L 338.953988 183.893042 
L 342.135921 185.33525 
L 344.863292 186.332609 
L 347.395851 187.025061 
L 349.831003 187.461272 
L 352.233687 187.665901 
L 354.66884 187.649477 
L 357.201398 187.408862 
L 359.928769 186.924003 
L 363.045765 186.136258 
L 367.006946 184.889019 
L 378.143711 181.248692 
L 381.585393 180.439273 
L 384.734857 179.925096 
L 387.786915 179.652977 
L 390.838973 179.604984 
L 394.020906 179.778659 
L 397.527526 180.197985 
L 399.41071 180.502919 
L 399.41071 180.502919 
" clip-path="url(#p1c8f7ed9af)" style="fill: none; stroke-dasharray: 1.5,2.475; stroke-dashoffset: 0; stroke: #1f77b4; stroke-width: 1.5"/>
   </g>
   <g id="patch_8">
    <path d="M 58.523438 273.312 
L 58.523438 7.2 
" style="fill: none; stroke: #000000; stroke-width: 0.8; stroke-linejoin: miter; stroke-linecap: square"/>
   </g>
   <g id="patch_9">
    <path d="M 415.643438 273.312 
L 415.643438 7.2 
" style="fill: none; stroke: #000000; stroke-width: 0.8; stroke-linejoin: miter; stroke-linecap: square"/>
   </g>
   <g id="patch_10">
    <path d="M 58.523438 273.312 
L 415.643438 273.312 
" style="fill: none; stroke: #000000; stroke-width: 0.8; stroke-linejoin: miter; stroke-linecap: square"/>
   </g>
   <g id="patch_11">
    <path d="M 58.523438 7.2 
L 415.643438 7.2 
" style="fill: none; stroke: #000000; stroke-width: 0.8; stroke-linejoin: miter; stroke-linecap: square"/>
   </g>
   <g id="legend_2">
    <g id="patch_12">
     <path d="M 365.143438 268.312 
L 408.643438 268.312 
Q 410.643438 268.312 410.643438 266.312 
L 410.643438 252.633875 
Q 410.643438 250.633875 408.643438 250.633875 
L 365.143438 250.633875 
Q 363.143438 250.633875 363.143438 252.633875 
L 363.143438 266.312 
Q 363.143438 268.312 365.143438 268.312 
z
" style="fill: #ffffff; opacity: 0.8; stroke: #cccccc; stroke-linejoin: miter"/>
    </g>
    <g id="line2d_27">
     <path d="M 367.143438 258.732312 
L 377.143438 258.732312 
L 387.143438 258.732312 
" style="fill: none; stroke-dasharray: 1.5,2.475; stroke-dashoffset: 0; stroke: #1f77b4; stroke-width: 1.5"/>
    </g>
    <g id="text_27">
     <!-- $i_{L1}$ -->
     <g transform="translate(395.143438 262.232312) scale(0.1 -0.1)">
      <defs>
       <path id="DejaVuSans-Oblique-4c" d="M 1075 4666 
L 1709 4666 
L 909 525 
L 3181 525 
L 3078 0 
L 172 0 
L 1075 4666 
z
" transform="scale(0.015625)"/>
      </defs>
      <use xlink:href="#DejaVuSans-Oblique-69" transform="translate(0 0.015625)"/>
      <use xlink:href="#DejaVuSans-Oblique-4c" transform="translate(27.783203 -16.390625) scale(0.7)"/>
      <use xlink:href="#DejaVuSans-31" transform="translate(66.782227 -16.390625) scale(0.7)"/>
     </g>
    </g>
   </g>
  </g>
 </g>
 <defs>
  <clipPath id="p1c8f7ed9af">
   <rect x="58.523438" y="7.2" width="357.12" height="266.112"/>
  </clipPath>
 </defs>
</svg>
